# Blender v2.75 (sub 0) OBJ File: 'stonehenge.blend'
# www.blender.org
mtllib reveal.mtl
o MIDSUMMER_Plane.004
v -0.000000 1.950000 0.612666
v -0.000000 1.650000 0.612666
v 0.000000 1.950000 1.112666
v 0.000000 1.650000 1.112666
v -0.000000 1.350000 0.612666
v -0.000000 1.050000 0.612666
v 0.000000 1.350000 1.112666
v 0.000000 1.050000 1.112666
v -0.000000 0.750000 0.612666
v -0.000000 0.450000 0.612666
v 0.000000 0.750000 1.112666
v 0.000000 0.450000 1.112666
v -0.000000 0.150000 0.612666
v -0.000000 -0.150000 0.612666
v 0.000000 0.150000 1.112666
v 0.000000 -0.150000 1.112666
v -0.000000 -0.450000 0.612666
v -0.000000 -0.750000 0.612666
v 0.000000 -0.450000 1.112666
v 0.000000 -0.750000 1.112666
v -0.000000 -1.050000 0.612666
v -0.000000 -1.350000 0.612666
v 0.000000 -1.050000 1.112666
v 0.000000 -1.350000 1.112666
v -0.000000 -1.650000 0.612666
v -0.000000 -1.950000 0.612666
v 0.000000 -1.650000 1.112666
v 0.000000 -1.950000 1.112666
v -0.000000 -2.250000 0.612666
v -0.000000 -2.550000 0.612666
v 0.000000 -2.250000 1.112666
v 0.000000 -2.550000 1.112666
v -0.000000 2.550000 0.612666
v -0.000000 2.250000 0.612666
v 0.000000 2.550000 1.112666
v 0.000000 2.250000 1.112666
vt 0.578836 0.107127
vt 0.634184 0.107127
vt 0.634184 0.194454
vt 0.578836 0.194454
vt 0.251813 0.104460
vt 0.307160 0.104460
vt 0.307160 0.191788
vt 0.251813 0.191788
vt 0.381713 0.001794
vt 0.437061 0.001794
vt 0.437061 0.089121
vt 0.381713 0.089121
vt 0.524548 0.001794
vt 0.579895 0.001794
vt 0.579895 0.089121
vt 0.524548 0.089121
vt 0.852126 0.108460
vt 0.907473 0.108460
vt 0.907473 0.195788
vt 0.852126 0.195788
vt 0.853684 0.108460
vt 0.909031 0.108460
vt 0.909031 0.195788
vt 0.853684 0.195788
vt 0.321300 0.104460
vt 0.376648 0.104460
vt 0.376648 0.191788
vt 0.321300 0.191788
vt 0.314200 0.001794
vt 0.369547 0.001794
vt 0.369547 0.089121
vt 0.314200 0.089121
vt 0.852756 0.107127
vt 0.908103 0.107127
vt 0.908103 0.194454
vt 0.852756 0.194454
vn -1.000000 0.000000 0.000000
usemtl Material.002
s off
f 1/1/1 2/2/1 4/3/1 3/4/1
f 5/5/1 6/6/1 8/7/1 7/8/1
f 9/9/1 10/10/1 12/11/1 11/12/1
f 13/13/1 14/14/1 16/15/1 15/16/1
f 17/17/1 18/18/1 20/19/1 19/20/1
f 21/21/1 22/22/1 24/23/1 23/24/1
f 25/25/1 26/26/1 28/27/1 27/28/1
f 29/29/1 30/30/1 32/31/1 31/32/1
f 33/33/1 34/34/1 36/35/1 35/36/1
