# Blender v2.75 (sub 0) OBJ File: 'stonehenge.blend'
# www.blender.org
o MIDSUMMER_Plane.004
v -0.000000 1.950000 0.612666
v -0.000000 1.650000 0.612666
v 0.000000 1.950000 1.112666
v 0.000000 1.650000 1.112666
v -0.000000 1.350000 0.612666
v -0.000000 1.050000 0.612666
v 0.000000 1.350000 1.112666
v 0.000000 1.050000 1.112666
v -0.000000 0.750000 0.612666
v -0.000000 0.450000 0.612666
v 0.000000 0.750000 1.112666
v 0.000000 0.450000 1.112666
v -0.000000 0.150000 0.612666
v -0.000000 -0.150000 0.612666
v 0.000000 0.150000 1.112666
v 0.000000 -0.150000 1.112666
v -0.000000 -0.450000 0.612666
v -0.000000 -0.750000 0.612666
v 0.000000 -0.450000 1.112666
v 0.000000 -0.750000 1.112666
v -0.000000 -1.050000 0.612666
v -0.000000 -1.350000 0.612666
v 0.000000 -1.050000 1.112666
v 0.000000 -1.350000 1.112666
v -0.000000 -1.650000 0.612666
v -0.000000 -1.950000 0.612666
v 0.000000 -1.650000 1.112666
v 0.000000 -1.950000 1.112666
v -0.000000 -2.250000 0.612666
v -0.000000 -2.550000 0.612666
v 0.000000 -2.250000 1.112666
v 0.000000 -2.550000 1.112666
v -0.000000 2.550000 0.612666
v -0.000000 2.250000 0.612666
v 0.000000 2.550000 1.112666
v 0.000000 2.250000 1.112666
vt 0.784312 0.104666
vt 0.839659 0.104666
vt 0.839659 0.191994
vt 0.784312 0.191994
vt 0.523730 0.002338
vt 0.579077 0.002338
vt 0.579077 0.089665
vt 0.523730 0.089665
vt 0.318963 0.103916
vt 0.374311 0.103916
vt 0.374311 0.191243
vt 0.318963 0.191243
vt 0.381803 0.003024
vt 0.437150 0.003024
vt 0.437150 0.090351
vt 0.381803 0.090351
vt 0.454710 0.003877
vt 0.510057 0.003877
vt 0.510057 0.091204
vt 0.454710 0.091204
vt 0.096993 0.003877
vt 0.152341 0.003877
vt 0.152341 0.091204
vt 0.096993 0.091204
vt 0.023546 0.001723
vt 0.078893 0.001723
vt 0.078893 0.089050
vt 0.023546 0.089050
vt 0.319121 0.103916
vt 0.374468 0.103916
vt 0.374468 0.191243
vt 0.319121 0.191243
vt 0.110830 0.105896
vt 0.166177 0.105896
vt 0.166177 0.193224
vt 0.110830 0.193224
vn -1.000000 0.000000 0.000000
s off
f 1/1/1 2/2/1 4/3/1 3/4/1
f 5/5/1 6/6/1 8/7/1 7/8/1
f 9/9/1 10/10/1 12/11/1 11/12/1
f 13/13/1 14/14/1 16/15/1 15/16/1
f 17/17/1 18/18/1 20/19/1 19/20/1
f 21/21/1 22/22/1 24/23/1 23/24/1
f 25/25/1 26/26/1 28/27/1 27/28/1
f 29/29/1 30/30/1 32/31/1 31/32/1
f 33/33/1 34/34/1 36/35/1 35/36/1
